<?xml version="1.0" encoding="utf-8"?>
<!-- Generator: Adobe Illustrator 28.0.0, SVG Export Plug-In . SVG Version: 6.00 Build 0)  -->
<svg version="1.1" id="Layer_1" xmlns="http://www.w3.org/2000/svg" xmlns:xlink="http://www.w3.org/1999/xlink" x="0px" y="0px"
	 viewBox="0 0 1459 842.5" style="enable-background:new 0 0 1459 842.5;" xml:space="preserve">
<style type="text/css">
	.st0{fill:#C00017;}
	.st1{fill:none;}
</style>
<g>
	<g>
		<path class="st0" d="M403.9,292.1c-15.8,0-118.1,2.2-118.1,2.2l0-41.6l226.7-5.9l0-100.4c-163.1,9-303.8,30.4-303.8,30.4l0,196.3
			l59.1,0c68.9-17.9,151.4-31.8,242.8-40.3C487.9,290,403.9,292.1,403.9,292.1z"/>
		<path class="st0" d="M868.4,327.3c-8.9-13-30.8-34.7-79.1-38.6l-141.2,0l0-46.1l225,0l0.3-96.2c-179.2-12.9-308,0-308,0l1.2,181.9
			c50.9-3.4,104-5.2,158.7-5.2C774.4,323.1,822.3,324.5,868.4,327.3z"/>
		<path class="st0" d="M1148.1,293.8l-140.6-3.4l0-42.8l222.8,11.3l1.1-84.4c0,0-202.5-24.8-304.9-28.1l-0.4,185.1
			c124.8,10.9,233.9,31.6,315.2,58.9C1240.8,364.7,1231.2,299.3,1148.1,293.8z"/>
	</g>
	<path class="st1" d="M272.3,424.8c50.4,4.4,117.1,9.2,152.6,7.9c0,0,33.2-1,25.5-34.4C386.2,405,326.3,413.9,272.3,424.8z"/>
	<path d="M1374.4,489.6C1302.4,408.8,1039,349,725,348.9c-302.1,0-557.5,55.4-640.5,131.5c33.6-15,74.7-28.6,121.8-40.7l0,62.7
		c0,0,177.5,23.1,222.5,25.3s64.1-21.4,64.1-21.4c36.1-35.2,33.1-96.4,31.3-114.6c62.3-4.5,127.9-6.9,195.7-6.9
		c28.2,0,56.1,0.4,83.5,1.2c2.2,5.3,7.8,21.6,1,36c-2.6,5.6-9,8.4-15.2,8.5c-18.6,0.4-75.9,0.9-225.1-2.5l0,100.5
		c0,0,123.8,8.7,232.9,3.1c0,0,99.8-8.4,86.2-142c93.1,5.6,179.6,15.7,255.7,29.6l5.1,1.1c-0.7,3.3-2.8,5.2-4,6.1
		c-0.6,0.4-1.3,0.6-2.1,0.7l-214.4,8.3l0,100.4l213.7-18.7c26-2.3,50.7-12.6,70-30.1c9.7-8.8,18.8-20.1,24.7-34.1l2.1-5.3
		c1.1-3.2,1.8-5.6,2-7.3C1291.4,454.8,1338.3,471.3,1374.4,489.6z M424.9,432.8c-35.5,1.3-102.2-3.6-152.6-7.9
		c54-10.9,113.9-19.8,178.1-26.5C458.1,431.7,424.9,432.8,424.9,432.8z"/>
	<g>
		<path class="st0" d="M294.9,682.6c-1.4-5.5-2.8-11.1-4.2-16.6c-15.5-1.4-30.9-2.9-46.4-4.5c-2.5,5.2-4.9,10.3-7.4,15.5
			c-10.5-1.1-21-2.2-31.5-3.3c18.1-33.8,35.9-67.6,53.4-101.6c11.8,1.2,23.6,2.3,35.4,3.4c10.3,36.6,21,73.2,32.1,109.8
			C315.8,684.4,305.4,683.5,294.9,682.6z M274,597.7c-6.6,13.9-13.2,27.7-19.9,41.6c10.4,1,20.8,2,31.2,3
			C281.5,627.4,277.7,612.5,274,597.7z"/>
		<path class="st0" d="M336,579.1c9.6,0.8,19.1,1.6,28.7,2.3c-1.7,20.8-3.4,41.5-5,62.3c-1,12.6,5.3,22.2,20.8,23.3
			c15.4,1.1,23-7.5,23.9-20.1c1.4-20.8,2.9-41.5,4.4-62.3c9.6,0.6,19.1,1.2,28.6,1.8c-1.4,21-2.7,42.1-4,63.1
			c-1.6,26.4-18.7,44.2-54.7,41.7c-36-2.6-50.5-22.8-48.3-48.9C332.3,621.3,334.2,600.2,336,579.1z"/>
		<path class="st0" d="M474.3,695.2c1.4-27.5,2.9-55,4.4-82.5c-10.3-0.5-20.5-1.1-30.8-1.7c0.5-8,1-15.9,1.5-23.9
			c29.7,1.7,59.4,3.2,89.2,4.3c-0.3,8-0.6,16-1,23.9c-10.2-0.4-20.4-0.8-30.6-1.3c-1.3,27.5-2.6,55-3.8,82.5
			C493.5,696.2,483.9,695.7,474.3,695.2z"/>
		<path class="st0" d="M599.7,591.6c33.3,0.8,57.8,23.7,57.5,56.2c-0.3,32.4-26,54.9-60.3,54c-34.2-0.8-59-24.5-57.7-56.9
			C540.5,612.4,566.5,590.8,599.7,591.6z M599.1,615.9c-18.2-0.5-30.3,12.6-30.9,30c-0.6,17.2,10.8,31.2,29.3,31.7
			c18.3,0.5,30.4-12.9,30.7-30.2C628.5,629.9,617.1,616.3,599.1,615.9z"/>
		<path class="st0" d="M711,701.3c0-35.5,0-71,0-106.6c18.2,0,36.4-0.1,54.6-0.3c24.5-0.3,38.2,15.5,38.7,34.8
			c0.4,19.2-12.9,35.3-37.8,35.6c-9,0.1-17.9,0.2-26.9,0.2c0.1,12,0.2,24.1,0.2,36.1C730.2,701.3,720.6,701.3,711,701.3z
			 M762.1,617.6c-7.6,0.1-15.2,0.2-22.8,0.2c0.1,8,0.1,16,0.2,24c7.7,0,15.3-0.1,23-0.2c7.6-0.1,13.2-4.8,13-12
			C775.3,622.2,769.6,617.5,762.1,617.6z"/>
		<path class="st0" d="M882.2,698.1c-2.1-5.3-4.2-10.6-6.3-15.9c-15.4,0.6-30.8,1-46.2,1.4c-1.8,5.4-3.5,10.8-5.3,16.3
			c-10.4,0.3-20.9,0.5-31.3,0.7c13.4-35.8,26.4-71.6,39.1-107.5c11.8-0.3,23.5-0.7,35.3-1.1c15,35,30.4,70,46,104.8
			C903.1,697.3,892.7,697.7,882.2,698.1z M850.7,616.5c-4.6,14.6-9.3,29.2-14.1,43.7c10.3-0.3,20.7-0.6,31-1
			C861.9,645.1,856.3,630.8,850.7,616.5z"/>
		<path class="st0" d="M982.6,693.3c-7-11.6-13.9-23.3-20.8-35c-4.9,0.3-9.8,0.5-14.6,0.8c0.6,12,1.3,24,1.9,36.1
			c-9.6,0.5-19.2,1-28.8,1.4c-1.6-35.5-3.3-71-5-106.4c18.2-0.8,36.4-1.8,54.6-2.8c24.2-1.4,39.1,13.3,40.4,33.1
			c1.3,18.5-9.8,29.1-19.9,33.3c8.4,12.6,16.8,25.1,25.2,37.6C1004.7,692,993.7,692.7,982.6,693.3z M967.1,610.7
			c-7.5,0.4-14.9,0.8-22.4,1.2c0.4,8,0.9,16,1.3,23.9c7.5-0.4,15-0.8,22.5-1.2c7.5-0.4,13.5-5.4,13-12.8
			C981,614.5,974.5,610.3,967.1,610.7z"/>
		<path class="st0" d="M1053,688.7c-2.1-27.5-4.2-54.9-6.3-82.4c-10.3,0.8-20.5,1.5-30.8,2.2c-0.6-8-1.1-15.9-1.7-23.9
			c29.8-2,59.5-4.3,89.3-6.9c0.7,8,1.5,15.9,2.2,23.9c-10.2,0.9-20.4,1.7-30.7,2.6c2.3,27.4,4.6,54.9,6.8,82.3
			C1072.2,687.2,1062.6,688,1053,688.7z"/>
		<path class="st0" d="M1128,646.8c8.7,6.9,21.7,12.1,37,10.6c9.9-1,15.5-5.6,15-10.6c-0.6-6-8.1-7.7-20.2-8.9
			c-18.7-1.7-44.7-3.9-47.1-29c-1.6-17.8,12.5-34.6,40.5-37.3c17.6-1.7,33.4,1.8,46.2,10.2c-4.4,7.1-8.8,14.1-13.3,21.2
			c-10.1-6.3-22.5-8.8-32.3-7.8c-9.4,0.9-12.7,4.9-12.2,9.5c0.6,5.6,7.5,6.8,20,7.9c18.6,1.9,44.4,4.3,47.2,28.2
			c2.4,21.3-12.7,37.3-42.9,40.2c-22.7,2.2-39.2-3.1-51.3-12.3C1119.1,661.3,1123.5,654.1,1128,646.8z"/>
	</g>
</g>
</svg>
