<?xml version="1.0" encoding="utf-8"?>
<!-- Generator: Adobe Illustrator 28.0.0, SVG Export Plug-In . SVG Version: 6.00 Build 0)  -->
<svg version="1.1" id="Capa_1" xmlns="http://www.w3.org/2000/svg" xmlns:xlink="http://www.w3.org/1999/xlink" x="0px" y="0px"
	 viewBox="0 0 39.1 39.1" style="enable-background:new 0 0 39.1 39.1;" xml:space="preserve">
<style type="text/css">
	.st0{fill:#B10014;}
</style>
<g>
	<g>
		<path class="st0" d="M38.8,14.3c-0.2-0.2-0.5-0.4-0.8-0.4h-3.8c-0.9-2.5-2.2-4.9-3.5-5.8c-4.8-3.2-17.5-3.2-22.4,0
			C7,9,5.7,11.4,4.8,13.9H1c-0.3,0-0.6,0.1-0.8,0.4C0,14.5,0,14.8,0,15.1l0.6,2.7c0.1,0.5,0.5,0.8,1,0.8h1.1
			c-1.1,1.3-1.6,2.8-1.6,4.4c0,2,0.7,3.7,2.1,5c0,0,0,0,0,0v3.8c0,0.8,0.7,1.5,1.5,1.5h3.5c0.8,0,1.5-0.7,1.5-1.5v-1.5h19.6v1.5
			c0,0.8,0.7,1.5,1.5,1.5h3.5c0.8,0,1.5-0.7,1.5-1.5v-3.7c1.4-1.3,2.1-3.1,2.1-4.9c0-1.6-0.5-3.3-1.7-4.6h1.2c0.5,0,0.9-0.3,1-0.8
			l0.6-2.7C39.1,14.8,39,14.5,38.8,14.3z M10,10.6c3.8-2.5,15.2-2.5,19.1,0c0.7,0.5,1.7,2.5,2.6,4.9H7.4C8.3,13,9.3,11.1,10,10.6z
			 M5.5,23.4c0-1.6,1.3-3,3-3c1.6,0,3,1.3,3,3s-1.3,3-3,3C6.8,26.4,5.5,25,5.5,23.4z M30.6,26.4c-1.6,0-3-1.3-3-3s1.3-3,3-3
			c1.6,0,3,1.3,3,3S32.3,26.4,30.6,26.4z"/>
	</g>
</g>
</svg>
